<?xml version="1.0" standalone="no"?>
<!DOCTYPE svg PUBLIC "-//W3C//DTD SVG 20010904//EN"
 "http://www.w3.org/TR/2001/REC-SVG-20010904/DTD/svg10.dtd">
<svg version="1.0" xmlns="http://www.w3.org/2000/svg"
 width="823.000000pt" height="169.000000pt" viewBox="0 0 823.000000 169.000000"
 preserveAspectRatio="xMidYMid meet">

<g transform="translate(0.000000,169.000000) scale(0.100000,-0.100000)"
fill="#000000" stroke="none">
<path d="M6255 1683 c-246 -34 -412 -182 -434 -385 -24 -229 59 -388 253 -483
50 -25 174 -70 276 -101 297 -90 350 -128 350 -251 0 -79 -17 -121 -65 -160
-51 -42 -132 -63 -246 -63 -108 0 -187 19 -238 57 -45 35 -81 116 -88 203 l-6
70 -113 0 -114 0 0 -215 0 -216 46 -19 c257 -111 637 -133 856 -50 121 45 222
150 258 268 62 199 16 400 -115 504 -78 63 -166 101 -379 167 -206 64 -296
103 -333 142 -47 52 -52 159 -12 225 42 69 136 99 281 91 187 -10 259 -72 283
-245 l7 -52 109 0 109 0 0 209 0 208 -72 21 c-125 36 -194 52 -295 67 -91 14
-247 18 -318 8z"/>
<path d="M7040 1550 l0 -110 65 0 65 0 0 -590 0 -590 -65 0 -65 0 0 -110 0
-110 308 2 307 3 3 108 3 107 -86 0 -85 0 0 219 0 218 158 6 c231 9 331 41
442 144 121 112 166 279 124 463 -28 123 -114 229 -235 290 -107 55 -155 60
-566 60 l-373 0 0 -110z m726 -134 c85 -39 119 -109 118 -241 -1 -58 -7 -93
-21 -125 -41 -92 -100 -120 -260 -128 l-113 -5 0 262 0 261 113 0 c97 0 119
-3 163 -24z"/>
<path d="M313 1546 c-139 -45 -229 -148 -284 -326 -20 -64 -24 -96 -24 -220 0
-107 5 -162 18 -210 42 -155 124 -268 235 -322 62 -31 73 -33 167 -33 79 0
109 5 145 21 59 27 101 64 140 122 l32 47 -5 -140 c-8 -216 -43 -297 -154
-351 -53 -26 -68 -29 -163 -29 -90 0 -112 3 -153 24 -55 27 -103 86 -113 137
-6 33 -7 34 -55 34 l-49 0 0 -114 0 -114 82 -26 c202 -63 431 -61 564 7 104
53 176 143 211 262 15 53 17 124 21 583 l3 522 60 0 59 0 0 55 0 55 -155 0
-155 0 0 -81 0 -81 -32 48 c-39 57 -103 109 -156 125 -59 18 -191 21 -239 5z
m255 -122 c122 -50 172 -174 172 -424 0 -312 -84 -450 -273 -450 -84 0 -140
29 -184 94 -65 95 -94 274 -75 454 24 235 105 342 260 342 34 0 79 -7 100 -16z"/>
<path d="M1805 1545 c-27 -8 -53 -14 -56 -15 -23 -1 -107 -72 -139 -118 l-40
-55 0 86 0 87 -185 0 -185 0 0 -50 0 -50 90 0 90 0 0 -430 0 -429 -82 -3 -83
-3 -3 -53 -3 -52 285 0 286 0 0 55 0 55 -105 0 -105 0 0 288 c0 226 3 301 15
347 34 132 110 203 229 212 35 3 76 3 89 -1 46 -11 84 -53 98 -107 l13 -50 51
3 50 3 0 135 0 135 -65 12 c-85 16 -183 15 -245 -2z"/>
<path d="M3950 1545 c-71 -20 -126 -60 -172 -125 l-38 -53 0 81 0 82 -155 0
-155 0 0 -55 0 -55 65 0 65 0 0 -640 0 -640 -65 0 -65 0 0 -55 0 -55 221 0
220 0 -3 53 -3 52 -62 3 -63 3 0 241 0 240 44 -59 c50 -69 87 -94 170 -118
232 -67 452 93 511 370 19 90 19 270 0 360 -34 161 -131 298 -248 351 -76 34
-184 42 -267 19z m191 -140 c51 -37 101 -123 120 -208 9 -38 14 -121 14 -212
-1 -126 -4 -161 -23 -221 -46 -150 -119 -214 -241 -214 -123 1 -203 64 -244
195 -19 61 -22 92 -22 250 0 162 2 187 24 252 27 84 76 147 135 175 32 14 59
18 118 16 66 -3 82 -7 119 -33z"/>
<path d="M5025 1546 c-83 -20 -146 -56 -211 -121 -34 -33 -74 -84 -88 -114
-90 -176 -89 -466 1 -634 39 -72 136 -168 203 -199 190 -89 419 -53 556 88 99
101 154 253 154 429 0 340 -200 568 -495 564 -38 0 -93 -6 -120 -13z m236
-113 c114 -59 159 -166 167 -395 7 -230 -23 -355 -107 -438 -66 -66 -155 -86
-256 -59 -61 17 -136 99 -164 180 -50 147 -50 400 0 547 26 77 95 156 154 177
67 24 144 19 206 -12z"/>
<path d="M2280 1475 l0 -55 55 0 55 0 0 -317 c0 -341 7 -417 46 -504 31 -69
72 -110 139 -141 41 -18 68 -23 150 -23 88 0 107 3 155 26 66 32 109 71 150
135 l30 48 0 -92 0 -92 155 0 155 0 0 55 0 55 -60 0 -60 0 0 480 0 480 -150 0
-150 0 0 -55 0 -55 56 0 56 0 -4 -307 c-5 -341 -10 -374 -71 -455 -46 -61
-104 -88 -191 -88 -102 0 -150 26 -185 99 l-26 56 -3 403 -3 402 -150 0 -149
0 0 -55z"/>
</g>
</svg>
